<svg xmlns="http://www.w3.org/2000/svg" xmlns:xlink="http://www.w3.org/1999/xlink" version="1.1" x="0px" y="0px" viewBox="0 0 16 20" style="enable-background:new 0 0 16 16;" xml:space="preserve"><style type="text/css">
	.st0{fill:red;}
</style><g><path d="M13.7,2.3c-3.1-3.1-8.2-3.1-11.3,0s-3.1,8.2,0,11.3s8.2,3.1,11.3,0S16.8,5.5,13.7,2.3z M9.3,10.3L8,9l-1.3,1.3   c-0.3,0.3-0.7,0.3-1,0c-0.3-0.3-0.3-0.7,0-1L7,8L5.7,6.7c-0.3-0.3-0.3-0.7,0-1s0.7-0.3,1,0L8,7l1.3-1.3c0.3-0.3,0.7-0.3,1,0   c0.3,0.3,0.3,0.7,0,1L9,8l1.3,1.3c0.3,0.3,0.3,0.7,0,1C10.1,10.6,9.6,10.6,9.3,10.3z"/></g></svg>